<svg xmlns="http://www.w3.org/2000/svg" width="16.056" height="16.056" viewBox="0 0 16.056 16.056">
  <g id="add-svgrepo-com" transform="translate(-0.001)">
    <path id="Tracé_13" data-name="Tracé 13" d="M13.708,2.349a8.028,8.028,0,1,0,0,11.358A8.041,8.041,0,0,0,13.708,2.349ZM3.161,12.9a6.884,6.884,0,1,1,9.736,0A6.892,6.892,0,0,1,3.161,12.9Z" transform="translate(0 0)" fill="#888"/>
    <path id="Tracé_14" data-name="Tracé 14" d="M57.414,52.45H53.6V48.633a.574.574,0,1,0-1.147,0V52.45H48.633a.574.574,0,1,0,0,1.147H52.45v3.817a.574.574,0,1,0,1.147,0V53.6h3.817a.574.574,0,1,0,0-1.147Z" transform="translate(-44.995 -44.996)" fill="#888"/>
  </g>
</svg>
