<svg xmlns="http://www.w3.org/2000/svg" width="14.957" height="16.056" viewBox="0 0 14.957 16.056">
  <g id="all-svgrepo-com" transform="translate(-3.7 -2.1)">
    <path id="Tracé_10" data-name="Tracé 10" d="M30.138,9.44A.745.745,0,0,1,29.4,8.7V4.038a.745.745,0,0,1,.738-.738H34.9a.745.745,0,0,1,.738.738V8.7a.745.745,0,0,1-.738.738Z" transform="translate(-17.077 -0.797)" fill="#888"/>
    <path id="Tracé_11" data-name="Tracé 11" d="M32,29.5l-2.751,2.986a.466.466,0,0,0,0,.638L32,36.111a.448.448,0,0,0,.671,0l2.751-2.986a.466.466,0,0,0,0-.638L32.673,29.5A.448.448,0,0,0,32,29.5Z" transform="translate(-16.894 -18.106)" fill="#888"/>
    <circle id="Ellipse_1" data-name="Ellipse 1" cx="3.121" cy="3.121" r="3.121" transform="translate(3.7 11.495)" fill="#888"/>
    <path id="Tracé_12" data-name="Tracé 12" d="M4.069,3.576,6.485,2.2a.666.666,0,0,1,.7,0L9.572,3.576a.719.719,0,0,1,.369.638V6.965a.719.719,0,0,1-.369.638L7.19,8.979a.666.666,0,0,1-.7,0L4.069,7.6A.719.719,0,0,1,3.7,6.965V4.214A.719.719,0,0,1,4.069,3.576Z" transform="translate(0)" fill="#888"/>
  </g>
</svg>
