<svg xmlns="http://www.w3.org/2000/svg" width="21.735" height="23.934" viewBox="0 0 21.735 23.934">
  <g id="download-svgrepo-com" transform="translate(-22.459)">
    <g id="Groupe_12" data-name="Groupe 12" transform="translate(22.459)">
      <path id="Tracé_18" data-name="Tracé 18" d="M176.383,174.023V181.4l-.715-.734a.935.935,0,0,0-1.429.049.991.991,0,0,0,0,1.429l2.448,2.448a.99.99,0,0,0,1.429,0l2.448-2.448a1.011,1.011,0,0,0-1.429-1.429l-.715.715v-7.4a1.018,1.018,0,1,0-2.036,0Z" transform="translate(-166.519 -164.531)" fill="#393939"/>
      <path id="Tracé_19" data-name="Tracé 19" d="M33.331,0C32.21,0,22.459.049,22.459,3.471c0,.015,3.74,18.7,3.74,18.7a.937.937,0,0,0,.666.764,20.851,20.851,0,0,0,13.016-.049.881.881,0,0,0,.612-.715S44.2,3.363,44.194,3.309C43.886.1,34.433,0,33.331,0Zm5.321,21.206a19.134,19.134,0,0,1-10.667,0L24.9,5.825c2.967,1.072,7.666,1.116,8.425,1.116a30.132,30.132,0,0,0,8.4-1.106ZM33.331,4.9c-4.846,0-8.062-.866-8.777-1.478.715-.563,3.931-1.478,8.777-1.478s8.062.915,8.777,1.478C41.394,3.98,38.178,4.9,33.331,4.9Z" transform="translate(-22.459 0)" fill="#393939"/>
    </g>
  </g>
</svg>
