<svg xmlns="http://www.w3.org/2000/svg" width="23.534" height="23.598" viewBox="0 0 23.534 23.598">
  <g id="edit-svgrepo-com" transform="translate(-0.672 0)">
    <g id="Groupe_11" data-name="Groupe 11" transform="translate(0.672 0)">
      <path id="Tracé_16" data-name="Tracé 16" d="M75.051,20.174l5.955-2.453a3.313,3.313,0,0,0,.4-.3L91.214,5.465a1.07,1.07,0,0,0-.149-1.4L86.408.212a.956.956,0,0,0-1.352.149L75.2,12.314a1.79,1.79,0,0,0-.2.452l-1.251,6.354C73.685,20.208,74.556,20.4,75.051,20.174ZM85.908,2.357l3.151,2.6L80.511,15.4,77.389,12.82ZM76.615,14.763l2.136,1.77L76,17.668Z" transform="translate(-70.23 0)" fill="#393939"/>
      <path id="Tracé_17" data-name="Tracé 17" d="M23.205,385.525H6.393s-3.487.164-3.617-.731c0-.048-.087-.269.366-.818a1.01,1.01,0,0,0-.1-1.4,1.01,1.01,0,0,0-1.4.1c-.952,1.15-1.2,2.15-.75,3.055,1.227,2.285,5.354,1.746,5.551,1.794H23.205a1,1,0,0,0,0-2Z" transform="translate(-0.672 -363.951)" fill="#393939"/>
    </g>
  </g>
</svg>
